<svg xmlns="http://www.w3.org/2000/svg" width="59.988" height="59.999" viewBox="0 0 59.988 59.999"><path d="M30,0h1.41l.032,0h.123l.032,0H32l-.2,2.994C31.206,3.02,30.6,3,30,3V0Zm3.989.263H34l.014,0,.021,0,.014,0,.016,0,.017,0,.015,0h0l.03,0h0l.015,0q.917.127,1.816.308l-.593,2.941c-.585-.118-1.182-.218-1.774-.3Zm3.918.79c.184.05.367.1.55.156h0l.044.013h0l.032.01h0l.01,0h0l.031.009h0l.01,0h0l.031.009h0l.01,0h0l.031.009h0l.01,0h0l.021.006.011,0h0l.029.009h0l.009,0h0l.028.009h0l.009,0h0l.028.009.013,0h0l.028.009.013,0h0l.016,0,.012,0,.013,0h0l.015,0,.012,0,.013,0h0L39,1.372l.012,0,0,0,.027.008.013,0,.005,0,.014,0,.012,0,.013,0,.006,0,.014,0,.012,0,.013,0,.007,0,.011,0,.014,0,.013,0,.011,0,.014,0,.014,0,.006,0,.012,0,.014,0,0,0,.01,0h0l.013,0h0l.01,0h0l.012,0h0l.014,0h0l.01,0h0l.027.009h0l.012,0h0l.029.009h0q.2.066.4.135l-.981,2.835c-.564-.2-1.142-.374-1.718-.531l.789-2.894ZM41.684,2.36q.616.261,1.219.548h0l.029.014h0l.009,0h0l.027.013,0,0,.008,0,0,0L43,2.956l0,0,.007,0,0,0,.007,0,0,0,.014.007,0,0,.008,0,0,0,.007,0,0,0L43.084,3,43.1,3,43.1,3l.008,0,.009,0,.006,0,.007,0,.006,0,.008,0,.007,0,.008,0,.006,0,.008,0,0,0,.011.006,0,0,.009,0,0,0,.009,0,0,0,.012.006,0,0,.009,0,0,0,.011.005h0l.012.006,0,0,.009,0,0,0L43.3,3.1h0l.011.006h0l.011.005h0l.013.006h0l.011.005,0,0,.025.013,0,0,.01,0h0l.026.013h0l.011.006h0l.013.007h0l.012.006h0l.013.006h0L43.5,3.2h0L42.147,5.879c-.533-.269-1.082-.524-1.632-.756L41.684,2.36Zm3.568,1.8q.31.183.615.374h0l.013.008h0l.013.008h0l.012.008h0l.011.007h0l.012.008h0l.01.006,0,0,.011.007h0l.01.007,0,0,.007,0,0,0,.01.007.005,0,.006,0,.006,0,.006,0,.01.006.006,0,.007,0,0,0,.007,0h0l.016.01h0l.008.005h0l.027.017h0l.037.024h0q.4.255.788.522l-1.7,2.475c-.493-.338-1-.663-1.518-.967Zm3.3,2.259q.338.266.667.541h0l.023.02h0l.011.009h0l.023.019,0,0,.011.009h0l.011.009,0,0,.009.007,0,0,.011.009h0l.01.008,0,0,.008.007,0,0,.011.009,0,0,.008.007,0,0,.009.007,0,0,.01.008,0,0,.007.006,0,0,.01.008,0,0,.007.006,0,0,.008.007,0,0,.01.009,0,0,.007.006,0,0,.01.009,0,0,.008.007,0,0L49.5,7.2l0,0,.01.008,0,0,.007.006,0,0,.009.007,0,0,.008.007,0,0,.007.006,0,0,.01.009,0,0,.008.007,0,0,.009.008h0l.01.009,0,0,.008.007,0,0,.011.009h0l.009.008,0,0,.009.008h0l.011.009,0,0,.009.008,0,0,.011.009h0l.01.009,0,0,.01.008h0l.011.01h0l.01.009h0l.023.02h0l.035.03h0q.141.124.28.249L48.07,9.938c-.444-.4-.907-.791-1.377-1.161ZM51.519,9.1q.264.271.52.549h0l.021.022,0,0,.006.006,0,0,.009.01,0,.005,0,0,0,0,0,.005.007.008,0,.005.005.006,0,0,.006.006,0,0,.009.01,0,0,.007.008,0,0,.009.01h0l.008.009,0,0,.008.009v0l.01.011h0l.009.01,0,0,.02.022h0l.031.034h0q.309.342.608.693L50.579,12.52c-.387-.455-.795-.9-1.211-1.333L51.519,9.1Zm2.589,3.045q.465.627.9,1.278h0l.017.026h0l.025.038h0l.017.025h0l.008.012h0l.017.025h0l.016.025h0l.008.012h0l.017.025h0l.11.17L52.723,15.41c-.323-.5-.668-1-1.024-1.481ZM56.271,15.5l.064.117h0l.005.01h0l.01.019h0l0,.008,0,0,0,.007,0,.007,0,.008,0,.007,0,0,0,.009,0,0,.006.012,0,0,.005.01,0,0,.014.026h0l.007.013h0q.352.652.672,1.323h0l.006.013h0l.007.014h0l.006.012v0l.006.012h0l.006.013,0,0,0,.009,0,0,.005.011,0,0,0,.009,0,.005,0,.007,0,.006.005.011,0,.007,0,.005,0,.007,0,0,.01.021-2.716,1.273c-.253-.54-.528-1.08-.817-1.6L56.271,15.5Zm1.7,3.619q.362.929.662,1.887l-2.862.9c-.179-.569-.379-1.14-.6-1.7Zm1.2,3.814q.027.113.054.227h0l.007.03h0l0,.014v0l.007.029v0l0,.013v0l.007.028v0l0,.011v0l0,.013h0l0,.014v0l0,.009v.005l0,.01v.005l0,.011v.005l0,.008v.006l0,.01v0l0,.011v.006l0,.007v.006l0,.009,0,.007,0,.01v.006l0,.008v.006l0,.01V23.5l0,.01v.006l0,.008v.006l0,.01v.006l0,.01v.006l0,.008v.005l0,.013v0l0,.011v.005l0,.009v0l0,.013v0l0,.011v0l0,.009v0l0,.013v0l0,.012v0l0,.01v0l0,.014h0l0,.013v0l0,.011v0l.006.028v0l0,.013h0l.006.029v0l0,.014h0l.006.03v0l.009.045h0q.06.291.114.583h0l0,.014v0l.005.029v0l0,.012v0l.005.028v0l0,.01v0l0,.012v.005l0,.01v.027l0,.014v0l0,.009v0c.011.063.023.128.034.192l-2.957.507c-.1-.589-.223-1.182-.363-1.762Zm.676,3.94q.037.355.065.713h0V27.6h0l0,.03v.031h0v.148l0,.03v.016l0,.033v.014l0,.046h0c.01.151.019.3.027.454h0l0,.046v.015l0,.033v.21h0q0,.078.006.156l-3,.111c-.022-.6-.065-1.2-.126-1.8Zm-2.85,3.91,3,.085q-.029,1.007-.123,2l-2.987-.283C56.935,31.989,56.972,31.384,56.989,30.785Zm-.34,3.584,2.961.481h0l0,.015h0l-.007.046h0q-.121.736-.278,1.459h0l-.01.044v0l0,.012v0l0,.014v0l0,.009v.005l0,.009v.005l0,.012,0,.007V36.5l0,.008v0l-.007.03v0c-.02.088-.04.176-.06.263L56.3,36.134C56.436,35.552,56.553,34.959,56.649,34.369Zm-.813,3.5,2.87.873q-.194.637-.415,1.263h0l0,.014h0l-.005.014h0l0,.013v0l0,.011v0l0,.013v0l0,.009,0,0,0,.009,0,0,0,.011,0,.005,0,.007,0,.006,0,.007,0,.011,0,.005,0,.008v0l0,.008h0l-.007.018v0l0,.009v0l-.011.031h0c-.047.128-.095.258-.143.385l-2.805-1.064C55.467,39.014,55.662,38.441,55.836,37.87Zm-1.275,3.361,2.727,1.249,0,.007,0,0,0,.007,0,.006,0,.006-.005.011,0,0,0,.008,0,.005,0,.01v0l-.006.013v0l0,.011v0l-.012.027h0q-.23.5-.478.983h0l-.014.027h0l-.006.013h0l-.014.027v0l-.007.013h0l-.007.013v0l-.005.01,0,0-.005.01,0,0,0,.009,0,.005,0,.007,0,.006-.005.01,0,.007,0,.005,0,.007,0,0-.013.025v0l0,.009h0l-.015.029h0q-.11.211-.224.421l-2.638-1.429C54.042,42.315,54.313,41.774,54.561,41.231Zm-1.713,3.162L55.385,46q-.535.847-1.123,1.654l-2.425-1.767C52.189,45.4,52.529,44.9,52.848,44.394ZM50.729,47.3l2.3,1.924-.1.12h0l-.02.024h0l-.009.01,0,0-.009.011h0l-.009.011,0,0-.006.007,0,0-.008.01,0,0-.006.007,0,0,0,.006-.006.007-.005.006,0,.006,0,0-.005.006,0,0-.009.011,0,0L52.8,49.5l0,0-.02.023,0,0-.029.033h0q-.312.362-.635.714h0l-.007.008h0l-.022.023,0,0-.007.007h0l-.014.015,0,0-.007.007h0l-.02.022,0,0-.006.006,0,0-.01.011,0,0L52,50.4l0,0,0,0-.008.009,0,0-.005.006,0,0-.006.007,0,0-.008.008,0,0-.007.007,0,0-.009.01,0,0-.008.008,0,0L51.9,50.5h0l-.01.01,0,0-.008.009,0,0-.02.021h0l-.031.033h0l-.021.022h0l-.108.113-2.17-2.072C49.942,48.212,50.345,47.761,50.729,47.3Zm-2.486,2.6,2.028,2.211-.04.037h0l-.023.021,0,0-.007.006,0,0-.02.019,0,0,0,0-.006.006-.006.005-.007.006,0,0-.006.006,0,0-.01.009,0,0-.008.007,0,0-.009.008h0l-.01.009,0,0-.008.007,0,0-.011.009h0l-.01.009,0,0-.022.02h0l-.01.009h0l-.022.02h0l-.034.03h0l-.058.052h0q-.561.5-1.146.967l-1.877-2.341C47.342,50.7,47.8,50.309,48.242,49.905Zm-2.808,2.251,1.717,2.46-.179.124h0l-.024.017,0,0-.011.008h0l-.012.008h0l-.01.007,0,0-.01.007,0,0-.01.007,0,0-.008.005,0,0-.011.007,0,0-.007,0-.006,0-.006,0-.008.006-.007,0-.006,0-.006,0-.006,0-.005,0-.011.008,0,0-.006,0,0,0-.023.016,0,0-.008.005h0l-.016.011h0l-.008.006,0,0-.025.017h0l-.008.006h0l-.026.018h0l-.027.018h0l-.009.006h0l-.026.018h0l-.009.006h0l-.027.018h0l-.027.018h0l-.009.006h0l-.026.017,0,0-.008.005h0l-.018.012h0l-.008.005h0l-.026.017h0l-.008.005,0,0-.016.011h0l-.008.005,0,0-.008,0h0l-.015.01,0,0-.007,0,0,0-.013.009,0,0-.007,0,0,0-.007,0,0,0-.011.007-.005,0-.006,0-.006,0-.006,0-.01.007,0,0-.007,0,0,0-.007,0-.006,0-.009.006,0,0-.008.005,0,0-.011.007h0l-.01.006,0,0-.01.006h0l-.012.007,0,0-.009.006,0,0-.012.008h0l-.012.008,0,0-.01.006,0,0-.012.008h0l-.011.007,0,0-.025.016h0l-.012.007h0l-.025.016h0l-.039.024h0l-.026.016h0q-.205.129-.413.254h0l-.013.008h0l-.025.015h0l-1.55-2.569C44.436,52.829,44.944,52.5,45.434,52.157Zm-3.08,1.858,1.375,2.666q-.343.177-.691.345h0l-.01,0h0l-.018.009h0l-.008,0,0,0-.008,0,0,0-.014.007-.012.006,0,0-.013.006-.011.005-.006,0-.006,0-.007,0-.008,0-.009,0-.006,0-.007,0-.005,0-.011.005,0,0-.009,0,0,0-.009,0,0,0-.012.006h0l-.01,0,0,0-.026.012h0l-.012.006h0l-.027.013h0q-.4.189-.812.367l-1.193-2.752C41.276,54.548,41.823,54.289,42.354,54.015Zm-3.3,1.43,1.006,2.826q-.843.3-1.709.551h0l-.044.013h0l-.013,0h0l-.014,0h0l-.011,0h0l-.011,0h0l-.013,0-.013,0-.015,0-.016,0-.013,0-.012,0-.008,0-.814-2.887C37.917,55.829,38.493,55.645,39.056,55.445ZM35.6,56.42l.618,2.936-.335.069h0l-.03.006h0l-.016,0-.014,0-.017,0-.015,0-.014,0-.019,0-.014,0-.022,0-.012,0-.013,0h0l-.029.006-.013,0h0q-.694.132-1.4.232l-.421-2.97C34.416,56.648,35.012,56.543,35.6,56.42Zm-3.562.5.223,2.992-.061,0h0l-.045,0h-.015l-.032,0h-.18l-.034,0h-.013l-.047,0-.047,0q-.365.021-.732.034l-.048,0h-.367L30.259,60l-.025-3C30.833,56.994,31.439,56.969,32.034,56.925Zm-5.4-.132c.592.073,1.2.128,1.793.162l-.171,3-.353-.022h0l-.045,0h-.119q-.742-.055-1.474-.146Zm-3.531-.68c.577.152,1.167.286,1.754.4l-.567,2.946-.314-.062-.013,0-.016,0-.009,0h-.006l-.014,0-.028-.006-.015,0h0l-.03-.006h0q-.759-.158-1.5-.354ZM19.7,54.967c.552.228,1.118.44,1.684.63l-.957,2.843-.008,0-.029-.01h0l-.009,0h0l-.029-.01h0L20.3,58.4h0l-.032-.011h0l-.043-.015h0q-.847-.292-1.671-.632Zm-3.224-1.592c.517.3,1.05.586,1.586.85l-1.328,2.69q-.242-.12-.481-.243h0l-.029-.015h0l-.009,0h0l-.027-.014,0,0-.008,0,0,0-.014-.007,0,0-.007,0-.005,0-.007,0-.006,0-.011-.006-.012-.006-.007,0-.007,0-.01-.005-.006,0-.006,0-.006,0-.009,0-.005,0-.01-.005,0,0-.009,0,0,0-.012-.006,0,0-.009,0,0,0-.01-.005h0l-.012-.007,0,0-.01-.005,0,0-.025-.013h0l-.012-.006h0l-.013-.007h0l-.012-.007h0l-.026-.014h0l-.013-.007h0l-.027-.014h0q-.185-.1-.369-.2h0l-.027-.015h0l-.013-.007h0l-.026-.015h0l-.026-.014h0l-.011-.006h0l-.025-.014,0,0-.009-.005,0,0-.012-.007,0,0-.009-.005,0,0-.009-.005,0,0-.011-.006,0,0-.007,0,0,0-.009,0-.008,0-.006,0-.011-.006-.024-.014,0,0-.008,0,0,0-.027-.015h0l-.155-.089ZM13.49,51.366c.473.366.964.721,1.46,1.054l-1.675,2.489q-.311-.209-.617-.426h0l-.012-.008h0l-.025-.018h0l-.012-.008h0l-.012-.009h0l-.01-.007,0,0-.012-.008h0l-.011-.008,0,0-.008-.006,0,0-.011-.008,0,0-.008-.006,0,0-.008-.006-.005,0-.009-.006,0,0-.007,0,0,0-.009-.006-.007,0-.005,0-.006,0-.005,0-.01-.007-.006,0-.006,0,0,0-.006,0-.005,0L12.4,54.3l0,0-.007,0,0,0-.022-.016,0,0-.007-.005,0,0-.013-.009,0,0-.007-.005,0,0-.023-.017,0,0-.007-.005,0,0-.016-.012h0L12.26,54.2l0,0-.024-.018,0,0-.008-.006,0,0-.024-.018,0,0-.007-.005,0,0-.015-.011h0l-.008-.006,0,0-.024-.018,0,0-.007-.005,0,0-.015-.011h0l-.008-.006,0,0-.007-.005,0,0-.014-.01,0,0-.007-.005,0,0-.012-.009,0,0-.006,0,0,0-.006,0,0,0-.01-.008,0,0L12,54l-.005,0-.006,0-.01-.007-.005,0-.006,0-.005,0-.006,0-.007-.006-.007-.006,0,0-.007-.005,0,0-.01-.008,0,0L11.9,53.93l0,0-.009-.007,0,0-.011-.008,0,0-.009-.007,0,0-.023-.018h0l-.011-.009h0l-.024-.019h0l-.148-.114ZM10.8,48.979c.42.425.86.842,1.308,1.238l-1.989,2.246-.26-.233h0l-.023-.021,0,0L9.821,52.2h0L9.8,52.185h0L9.8,52.177l0,0-.021-.019,0,0-.006-.006,0,0-.012-.011,0,0-.007-.006,0,0-.006-.006,0,0-.01-.009,0,0-.005,0L9.7,52.089l0,0-.009-.008,0,0-.006-.005,0,0-.008-.007,0,0-.006-.006,0,0-.006-.006,0,0-.01-.009,0,0-.007-.007,0,0L9.606,52l0,0-.009-.009,0,0-.008-.008,0,0-.01-.01h0L9.56,51.96l0,0-.021-.02,0,0-.009-.009h0l-.011-.01h0l-.01-.01h0l-.022-.02h0l-.01-.009h0l-.022-.02h0l-.022-.021h0l-.011-.01h0L9.389,51.8h0l-.033-.032h0q-.306-.29-.6-.589h0l-.022-.022h0L8.7,51.122h0L8.674,51.1h0l-.01-.01h0ZM8.441,46.257c.36.477.741.948,1.132,1.4L7.3,49.62l-.051-.059h0l-.009-.011h0l-.01-.011v0l-.008-.009,0,0L7.2,49.5l0,0-.007-.008,0,0-.009-.01,0,0-.006-.007,0,0-.005-.006-.006-.007-.006-.007,0-.005,0,0,0-.006,0-.005-.008-.01,0,0L7.119,49.4l0,0L7.1,49.378l0,0-.006-.007,0,0-.011-.013,0,0-.006-.007,0,0-.019-.023,0,0-.006-.008h0l-.013-.016h0l-.007-.008v0L7,49.257h0l-.007-.008h0l-.021-.025v0l-.028-.033h0l-.021-.025h0l-.028-.034h0l-.02-.024v0l-.007-.008h0l-.021-.025h0l-.021-.025h0l-.007-.008h0l-.02-.025v0l-.02-.024h0l-.006-.008v0l-.019-.024,0,0-.006-.007h0l-.013-.016h0l-.006-.008,0,0-.019-.023,0,0-.006-.007,0,0-.012-.015h0l-.006-.007,0,0-.006-.007,0,0-.01-.013,0,0-.005-.006,0,0L6.62,48.8l0-.005,0-.006,0,0,0-.006,0,0-.008-.01,0,0,0-.006,0,0,0-.006-.007-.009,0,0,0-.006,0-.005,0-.006L6.542,48.7l0-.006,0-.005,0-.005,0-.005-.008-.009,0,0-.005-.006,0,0L6.5,48.649l0,0-.008-.01,0,0-.006-.007,0,0-.008-.01,0,0L6.459,48.6l0,0-.007-.008,0,0-.008-.011,0,0-.006-.008,0,0-.009-.011h0l-.009-.011,0,0-.008-.01h0l-.009-.011v0l-.007-.01,0,0-.018-.022,0,0-.007-.009,0,0-.009-.011h0l-.008-.011,0,0-.008-.011h0l-.009-.012v0L6.3,48.4v0l-.018-.023v0l-.008-.011h0l-.009-.012h0l-.008-.01v0l-.018-.023,0,0-.008-.01h0l-.009-.012h0l-.008-.011,0,0L6.2,48.264h0l-.009-.012v0l-.008-.01h0l-.018-.023,0,0L6.151,48.2h0l-.009-.012,0,0-.007-.01,0,0-.009-.011h0l-.008-.011,0,0-.007-.009,0,0-.008-.011,0,0-.006-.008,0,0-.007-.01v0l-.008-.01,0,0-.005-.007,0,0-.008-.01h0ZM6.468,43.248c.293.52.608,1.037.936,1.537L4.9,46.431q-.516-.786-.983-1.606h0L3.9,44.8h0l-.005-.009v0l-.015-.027v0l0-.009h0l-.011-.019h0l0,0ZM4.914,40.006c.221.554.464,1.108.723,1.647l-2.705,1.3q-.431-.9-.8-1.831Zm-1.106-3.42c.145.579.312,1.161.5,1.729l-2.855.923q-.091-.281-.176-.565h0l-.009-.029h0l0-.014h0L1.25,38.6h0l0-.014h0l-.009-.029h0l0-.013h0l-.008-.028v0l0-.013h0l-.008-.028v0l0-.013h0l0-.014v0l0-.013v0l0-.014h0l0-.015v0l0-.012v0l-.008-.028v0l0-.011v0l0-.014h0l0-.013v0l0-.011v0l0-.014h0l0-.012v0l0-.011v0l0-.014v0l0-.012v0l0-.012v0l0-.014v0l0-.012v0l0-.013h0l0-.014v0l0-.012v0l0-.013h0l0-.014v0l0-.011v0l-.008-.027v0l0-.011v0l0-.014h0l0-.013v0l0-.011v0l0-.014h0l0-.013v0l0-.012v0l0-.014v0l0-.012v0l0-.013v0l0-.014v0l0-.012v0l-.008-.028v0l0-.012v0l0-.014h0l0-.014v0l0-.012v0l-.008-.029v0l0-.012v0L1,37.7v0l0-.013h0L.984,37.65v0l-.008-.029h0l0-.014v0l-.008-.029h0l0-.013v0l-.008-.029h0l0-.014h0l-.008-.03h0l0-.014h0l-.008-.029v0l0-.014h0l-.008-.03h0l0-.014h0l-.007-.029v0L.9,37.315h0ZM3.17,33.047c.067.594.154,1.193.26,1.78L.477,35.36v0l0-.012v0l0-.011v0l0-.009v0l0-.012v0l0-.012V35.28l0-.009v-.005l0-.011v0l0-.012V35.22l0-.01v0l0-.013v-.019l0-.009v0l0-.013v-.019l0-.009v-.005l0-.013V35.1l0-.009v-.005l0-.01v0l0-.013v0l0-.01v0l0-.011v0l0-.014v0l0-.01v0l0-.011v0l0-.014v0l0-.011v0l0-.012v0l0-.014h0l0-.013v0l0-.011v0l0-.014v0l0-.013v0l0-.012v0l0-.029v0l0-.014h0l0-.03h0l0-.014h0l0-.03h0q-.1-.662-.18-1.334ZM.006,29.388l3,.06C3,29.631,3,29.817,3,30c0,.416.01.837.028,1.251l-3,.136Q.014,31,.006,30.617h0v-.059h0v-.12H0v-.012H0v-.1H0v-.245s0-.006,0-.008v-.012s0,0,0,0v-.007s0,0,0-.005,0,0,0-.007v0s0,0,0-.007,0,0,0,0,0,0,0-.008v0S0,30,0,30H0s0-.007,0-.011v0s0-.006,0-.008,0,0,0,0,0-.006,0-.009,0,0,0,0,0-.007,0-.012H0v-.013s0-.005,0-.009v0s0-.006,0-.011H0V29.9H0v-.024c0-.008,0-.016,0-.024H0v-.012H0c0-.105,0-.21,0-.314H0V29.5H0v-.041Q.005,29.425.006,29.388ZM.35,25.406l2.965.456c-.091.59-.163,1.191-.214,1.787L.112,27.391q.061-.712.156-1.415h0l0-.014h0l0-.029v0l0-.012v0l0-.028v-.033l0-.013V25.8l0-.012v-.026l0-.031v0l0-.011h0c.015-.106.031-.211.047-.317Zm.87-3.9,2.878.848c-.169.572-.32,1.158-.45,1.741L.719,23.441q.164-.735.364-1.457h0l0-.014h0l.008-.029v0l0-.013v0l0-.014h0l0-.013v0l0-.011v0l0-.014v0l0-.011v0l0-.01v0l0-.013v0l0-.009,0-.005,0-.009v0l0-.012,0-.006,0-.007,0-.007,0-.006,0-.013,0-.005,0-.007,0-.006,0-.008,0-.005,0-.015v0l0-.009v0l0-.009v0l.005-.018v0l0-.009v0l.009-.031h0l0-.01v0l.013-.043h0L1.22,21.5ZM2.6,17.755l2.738,1.226c-.244.545-.473,1.105-.679,1.665L1.849,19.606h0l.005-.014h0l.01-.027v0l0-.01,0,0,0-.012,0-.005,0-.007,0-.007,0-.006.01-.027v0l0-.01h0q.253-.676.538-1.336h0l.013-.03h0l0-.009v0l.008-.018h0l0-.007,0-.005,0-.007,0-.006,0-.009,0-.009,0,0,0-.008,0,0L2.5,18h0l.006-.013v0l.005-.012h0Zm1.873-3.531,2.55,1.58c-.315.508-.616,1.033-.9,1.56l-2.65-1.406.042-.078h0l.005-.01h0l.015-.028v0l0-.009v0l.009-.016,0,0,0-.008,0,0,0-.008,0,0,.007-.014,0,0,0-.007,0,0,.007-.013,0,0,0-.007,0-.005,0-.006,0-.007,0-.008,0-.008,0-.005,0-.007,0-.006.006-.011,0,0,0-.007,0-.005,0-.007,0-.005.006-.011,0-.005,0-.007,0,0,.006-.01,0,0,0-.009,0,0,0-.008,0,0L3.7,15.56l0,0,0-.008,0,0,.005-.01,0,0,.006-.011,0,0,0-.008,0,0,.006-.012,0,0,.005-.009,0,0,0-.009,0,0,.007-.012,0,0,0-.009,0,0,.006-.011h0l.006-.011,0,0,0-.009,0,0,.007-.012v0l.006-.01,0,0,.005-.01,0,0,.007-.012,0,0,0-.009,0,0,.006-.011,0,0,.005-.009,0,0,0-.008,0,0,.006-.011,0,0,0-.008,0,0,.005-.009,0,0,.007-.012,0,0,0-.009,0,0L3.9,15.2l0,0,.005-.009,0,0,0-.008,0,0,.006-.011,0,0,0-.008,0,0,.005-.009,0,0,.005-.009,0,0,0-.007,0,0,.006-.011,0,0,0-.007,0-.006,0-.007,0,0,.006-.011,0,0,0-.007,0-.005,0-.008,0-.008,0-.007,0-.006,0-.006,0-.006.006-.01,0-.006,0-.006,0-.006,0-.005.006-.01,0-.006,0-.007,0,0,0-.007,0,0,.007-.012,0-.005,0-.006,0-.005.014-.024,0,0,0-.008,0,0,.009-.015,0,0,0-.007,0,0,0-.008h0l.01-.017,0,0,0-.008,0,0,.015-.025,0,0,0-.008v0l.01-.017h0l.005-.009v0l.016-.027h0l.005-.009h0l.017-.028h0l.023-.038h0Q4.357,14.42,4.478,14.224ZM6.8,10.974l2.318,1.9c-.379.462-.748.943-1.1,1.429L5.587,12.56l.009-.012h0l.008-.012h0l.009-.012h0l.007-.01,0,0,.007-.01v0l.008-.011,0,0,.005-.007,0,0,.005-.007.006-.008,0-.006,0-.006,0-.005.01-.014v0l0-.007,0,0L5.7,12.4h0l.019-.026h0q.522-.718,1.085-1.4ZM9.54,8.059l2.046,2.194c-.437.408-.866.836-1.275,1.271L8.124,9.471q.246-.262.5-.518h0l.01-.01,0,0,.01-.01h0l.01-.01,0,0,.007-.007,0,0L8.676,8.9l0,0,.006-.006,0,0,0,0L8.7,8.87l0,0,.006-.006,0,0,.006-.006h0l.014-.014h0l.008-.008h0q.389-.39.793-.767Zm3.1-2.527,1.738,2.445c-.487.346-.969.713-1.432,1.091l-1.9-2.324.024-.019h0l.023-.019,0,0,.01-.008,0,0,.011-.009,0,0,.009-.007,0,0,.008-.007,0,0,.009-.007,0,0,.006-.005,0,0,.008-.006.007-.005.005,0,.006,0,0,0,.014-.011h0l.007-.006,0,0,.007-.006h0l.026-.021h0q.36-.289.729-.566h0l.026-.02h0l.008-.006h0l.023-.017,0,0,.006,0,0,0,.009-.007.006,0,.005,0,.006,0,0,0,.01-.008,0,0,.008-.006,0,0,.01-.007h0l.011-.008,0,0,.01-.007h0l.024-.018h0Q12.408,5.7,12.637,5.532Zm3.4-2.094,1.4,2.654c-.528.278-1.054.578-1.563.891L14.3,4.429q.192-.118.386-.233h0l.012-.007h0l.012-.007,0,0,.008,0,.005,0,.01-.006.005,0,.007,0,.006,0,.006,0,.024-.014,0,0,.008,0h0l.028-.017h0q.6-.35,1.209-.673Zm3.653-1.621,1.03,2.817c-.56.2-1.121.432-1.667.674L17.841,2.566q.228-.1.457-.2h0l.028-.012h0l.014-.006h0l.014-.006h0l.012,0h0l.012-.005h0l.013-.005h0l.009,0,0,0,.011,0,0,0,.009,0,.005,0,.008,0,.005,0,.011,0,.013-.005.013-.005.017-.007h0l.008,0,0,0,.008,0h0l.029-.012h0l.03-.013h0l.01,0h0c.359-.148.721-.288,1.087-.422ZM23.532.7l.644,2.93c-.583.128-1.169.278-1.742.445l-.839-2.88Q22.55.915,23.532.7ZM27.485.1l.248,2.99c-.6.049-1.2.12-1.788.208L25.5.335q.253-.038.508-.072h0l.016,0,.029,0,.015,0,.017,0h0l.018,0,.015,0,.014,0,.018,0,.015,0,.014,0,.018,0,.015,0,.014,0,.019,0,.014,0,.014,0,.019,0,.014,0,.013,0,.02,0,.014,0,.014,0,.021,0,.013,0,.013,0,.021,0h.012l.013,0h.005l.029,0,.013,0,.022,0h.011l.013,0,.014,0,.02,0,.014,0,.014,0,.018,0,.014,0,.014,0,.018,0,.014,0,.014,0,.014,0,.018,0,.014,0,.014,0,.017,0,.015,0h.014l.015,0h.017l.014,0h0l.031,0h0Q27.187.129,27.485.1ZM30,0V3c-.155,0-.312,0-.467,0l-.051-3,.142,0H30Z" fill="#fff" opacity="0.326"/></svg>