<svg xmlns="http://www.w3.org/2000/svg" width="34.934" height="34.889" viewBox="0 0 34.934 34.889"><path d="M19.439,12.465a6.974,6.974,0,1,0,6.974,6.974A6.974,6.974,0,0,0,19.439,12.465Zm0,10.461a3.487,3.487,0,1,1,3.487-3.487A3.487,3.487,0,0,1,19.439,22.926ZM36.367,18.2l-4.1-3.992V8.35a1.743,1.743,0,0,0-1.743-1.743H24.756l-4.08-4.1a1.743,1.743,0,0,0-2.476,0l-3.992,4.1H8.35A1.743,1.743,0,0,0,6.607,8.35v5.858L2.51,18.2a1.743,1.743,0,0,0,0,2.476l4.1,4.08v5.771A1.743,1.743,0,0,0,8.35,32.27h5.858l4.08,4.1a1.743,1.743,0,0,0,2.476,0l4.08-4.1h5.771a1.743,1.743,0,0,0,1.743-1.743V24.756l4.1-4.08a1.743,1.743,0,0,0-.087-2.476Zm-7.061,4.6a1.743,1.743,0,0,0-.523,1.238v4.742H24.041a1.743,1.743,0,0,0-1.238.523l-3.365,3.365-3.365-3.365a1.743,1.743,0,0,0-1.238-.523H10.094V24.041A1.743,1.743,0,0,0,9.571,22.8L6.206,19.439l3.365-3.365a1.743,1.743,0,0,0,.523-1.238V10.094h4.742a1.743,1.743,0,0,0,1.238-.523l3.365-3.365L22.8,9.571a1.743,1.743,0,0,0,1.238.523h4.742v4.742a1.743,1.743,0,0,0,.523,1.238l3.365,3.365Z" transform="translate(-1.994 -1.994)" fill="#fff"/></svg>