<svg xmlns="http://www.w3.org/2000/svg" width="40.987" height="38.995" viewBox="0 0 40.987 38.995"><path d="M19.706,0,0,19.338V38.995H3.827V20.742L22.318,2.612Z" transform="translate(0 0)" fill="#004f39"/><path d="M21.45,3.509,2.491,22.113v18.6H4.835V22.894L23.012,5.071Z" transform="translate(-1.749 -2.464)" fill="#004f39"/><path d="M35.056,49.549V33.813L49,17.476l-2.911-2.445L31.228,32.414V49.549Z" transform="translate(-21.927 -10.554)" fill="#004f39"/><path d="M47.922,18.528,33.72,35.143V51.261h2.344V36L49.7,20.019Z" transform="translate(-23.676 -13.009)" fill="#004f39"/><path d="M66.357,61.009V47.7l9.264-14.4-3.206-1.954L62.458,46.626V61.009Z" transform="translate(-43.855 -22.015)" fill="#004f39"/><path d="M74.394,34.738,64.95,49.224v13.42h2.414V49.863l8.971-13.941Z" transform="translate(-45.604 -24.391)" fill="#004f39"/><path d="M97.246,72.448V61.9l4.791-13.157-3.595-1.094L93.371,61.252v11.2Z" transform="translate(-65.56 -33.453)" fill="#004f39"/><path d="M100.642,50.711,95.861,63.539v10.32h2.391V63.918l4.568-12.544Z" transform="translate(-67.308 -35.607)" fill="#004f39"/><rect width="3.804" height="19.662" transform="translate(37.184 19.332)" fill="#004f39"/><rect width="2.319" height="18.178" transform="translate(37.926 20.075)" fill="#004f39"/></svg>