<svg xmlns="http://www.w3.org/2000/svg" width="45" height="44.943" viewBox="0 0 45 44.943"><g transform="translate(-1296.5 -4331.528)"><path d="M23.966,15.182a8.784,8.784,0,1,0,8.784,8.784A8.784,8.784,0,0,0,23.966,15.182Zm0,13.175a4.392,4.392,0,1,1,4.392-4.392A4.392,4.392,0,0,1,23.966,28.358Zm21.322-5.951-5.16-5.029V10a2.2,2.2,0,0,0-2.2-2.2H30.663l-5.138-5.16a2.2,2.2,0,0,0-3.118,0L17.378,7.8H10A2.2,2.2,0,0,0,7.8,10v7.378l-5.16,5.029a2.2,2.2,0,0,0,0,3.118L7.8,30.663v7.268a2.2,2.2,0,0,0,2.2,2.2h7.378l5.138,5.16a2.2,2.2,0,0,0,3.118,0l5.138-5.16h7.268a2.2,2.2,0,0,0,2.2-2.2V30.663l5.16-5.138a2.2,2.2,0,0,0-.11-3.118Zm-8.893,5.8a2.2,2.2,0,0,0-.659,1.559v5.973H29.763a2.2,2.2,0,0,0-1.559.659l-4.238,4.238-4.238-4.238a2.2,2.2,0,0,0-1.559-.659H12.2V29.763a2.2,2.2,0,0,0-.659-1.559L7.3,23.966l4.238-4.238a2.2,2.2,0,0,0,.659-1.559V12.2h5.973a2.2,2.2,0,0,0,1.559-.659L23.966,7.3,28.2,11.537a2.2,2.2,0,0,0,1.559.659h5.973v5.973a2.2,2.2,0,0,0,.659,1.559l4.238,4.238Z" transform="translate(1295.006 4330.034)" fill="#004f39"/><path d="M23.966,1.494a2.713,2.713,0,0,1,1.914.8L30.871,7.3h7.061a2.7,2.7,0,0,1,2.7,2.7v7.167l5,4.877a2.7,2.7,0,0,1,.13,3.823l-.011.012-5.013,4.992v7.061a2.7,2.7,0,0,1-2.7,2.7H30.981l-4.992,5.013a2.7,2.7,0,0,1-3.827,0L17.17,40.628H10a2.7,2.7,0,0,1-2.7-2.7V30.871L2.291,25.879a2.7,2.7,0,0,1,0-3.827L7.3,17.167V10A2.7,2.7,0,0,1,10,7.3h7.167l4.881-5.009A2.716,2.716,0,0,1,23.966,1.494ZM45.039,25.177a1.7,1.7,0,0,0-.09-2.4l-.01-.009-5.311-5.176V10a1.7,1.7,0,0,0-1.7-1.7H30.456L25.171,3a1.7,1.7,0,0,0-2.409,0L17.589,8.3H10A1.7,1.7,0,0,0,8.3,10v7.589L2.993,22.765A1.7,1.7,0,0,0,3,25.17L8.3,30.456v7.476a1.7,1.7,0,0,0,1.7,1.7h7.586l5.285,5.308a1.7,1.7,0,0,0,2.409,0l5.286-5.308h7.476a1.7,1.7,0,0,0,1.7-1.7V30.456ZM23.966,6.592l4.6,4.6a1.707,1.707,0,0,0,1.2.509h6.471v6.473a1.706,1.706,0,0,0,.509,1.2l0,0,4.592,4.592-4.6,4.6a1.707,1.707,0,0,0-.509,1.2v6.471H29.763a1.706,1.706,0,0,0-1.2.509l0,0L23.966,41.34l-4.592-4.592a1.71,1.71,0,0,0-1.208-.512H11.7V29.763a1.705,1.705,0,0,0-.509-1.2l0,0L6.592,23.966l4.6-4.6a1.707,1.707,0,0,0,.509-1.2V11.7h6.473a1.706,1.706,0,0,0,1.2-.509l0,0Zm3.882,5.3L23.966,8.006l-3.882,3.882a2.713,2.713,0,0,1-1.913.808H12.7v5.473a2.714,2.714,0,0,1-.808,1.915L8.006,23.966l3.883,3.883a2.713,2.713,0,0,1,.807,1.912v5.475h5.473a2.714,2.714,0,0,1,1.916.809l3.881,3.881,3.883-3.883a2.713,2.713,0,0,1,1.912-.807h5.475V29.763a2.714,2.714,0,0,1,.808-1.915l3.882-3.882-3.882-3.882a2.713,2.713,0,0,1-.808-1.913V12.7H29.763A2.714,2.714,0,0,1,27.848,11.888Zm-3.882,2.794a9.284,9.284,0,1,1-9.284,9.284A9.294,9.294,0,0,1,23.966,14.682Zm0,17.567a8.284,8.284,0,1,0-8.284-8.284A8.293,8.293,0,0,0,23.966,32.249Zm0-13.175a4.892,4.892,0,1,1-4.892,4.892A4.9,4.9,0,0,1,23.966,19.074Zm0,8.784a3.892,3.892,0,1,0-3.892-3.892A3.9,3.9,0,0,0,23.966,27.858Z" transform="translate(1295.006 4330.034)" fill="#f5f5f4"/></g></svg>