<svg xmlns="http://www.w3.org/2000/svg" width="27.837" height="34.796" viewBox="0 0 27.837 34.796"><path d="M17.918,2A13.918,13.918,0,0,0,4,15.918c0,9.395,12.266,20.008,12.787,20.46a1.74,1.74,0,0,0,2.262,0c.609-.452,12.787-11.065,12.787-20.46A13.918,13.918,0,0,0,17.918,2Zm0,30.707C14.213,29.228,7.48,21.729,7.48,15.918a10.439,10.439,0,1,1,20.878,0C28.357,21.729,21.624,29.245,17.918,32.707Zm0-23.748a6.959,6.959,0,1,0,6.959,6.959A6.959,6.959,0,0,0,17.918,8.959Zm0,10.439a3.48,3.48,0,1,1,3.48-3.48A3.48,3.48,0,0,1,17.918,19.4Z" transform="translate(-4 -2)" fill="#fff"/></svg>