<svg xmlns="http://www.w3.org/2000/svg" width="24" height="33" viewBox="0 0 24 33"><path d="M26.492,31h-1.5V28.5a7.5,7.5,0,0,0-.449-2.517c-.016-.044-.034-.085-.054-.127a7.465,7.465,0,0,0-1-1.855l-2.1-2.8a4.529,4.529,0,0,1-.9-2.7V16.986A4.532,4.532,0,0,1,21.809,13.8l.986-.986A7.418,7.418,0,0,0,24.89,8.561c0-.021.012-.038.012-.059l0-.021a7.527,7.527,0,0,0,.094-.965V4h1.5a1.5,1.5,0,0,0,0-3h-21a1.5,1.5,0,1,0,0,3h1.5V7.516a7.528,7.528,0,0,0,.094.965l0,.021c0,.021.011.038.012.059a7.419,7.419,0,0,0,2.094,4.258l.986.986a4.532,4.532,0,0,1,1.318,3.182V18.5a4.533,4.533,0,0,1-.9,2.7L8.491,24a7.473,7.473,0,0,0-1,1.856c-.02.042-.037.082-.053.126A7.5,7.5,0,0,0,6.992,28.5V31h-1.5a1.5,1.5,0,0,0,0,3h21a1.5,1.5,0,0,0,0-3ZM9.992,7V4h12V7Zm1.318,3.7a4.456,4.456,0,0,1-.565-.7h10.5a4.456,4.456,0,0,1-.565.7l-.986.986A7.44,7.44,0,0,0,17.555,16H14.428A7.44,7.44,0,0,0,12.3,11.684ZM12.992,23a7.555,7.555,0,0,0,1.482-4h3.034a7.55,7.55,0,0,0,1.483,4l1.5,2h-9Zm9,8h-12V28.5a4.431,4.431,0,0,1,.041-.5H21.951a4.43,4.43,0,0,1,.041.5Z" transform="translate(-3.992 -1.002)" fill="#fff"/></svg>