<svg xmlns="http://www.w3.org/2000/svg" xmlns:xlink="http://www.w3.org/1999/xlink" width="228.256" height="58.758" viewBox="0 0 228.256 58.758"><defs><clipPath id="a"><rect width="228.256" height="58.758" fill="none"/></clipPath></defs><g transform="translate(0)"><path d="M19.389,0,0,19.026V38.367H3.766V20.408L21.958,2.57Z" transform="translate(0 0)" fill="#004b34"/><path d="M21.145,3.509,2.491,21.813v18.3H4.8V22.582L22.682,5.046Z" transform="translate(-1.761 -2.481)" fill="#004b34"/><path d="M34.995,48.993V33.511L48.711,17.437l-2.864-2.406-14.619,17.1V48.993Z" transform="translate(-22.077 -10.626)" fill="#004b34"/><path d="M47.693,18.528,33.72,34.876V50.735h2.306V35.714L49.439,20Z" transform="translate(-23.838 -13.098)" fill="#004b34"/><path d="M66.294,60.532V47.44l9.115-14.165-3.154-1.922-9.8,15.027V60.532Z" transform="translate(-44.154 -22.165)" fill="#004b34"/><path d="M74.242,34.738,64.95,48.99v13.2h2.375V49.619L76.152,35.9Z" transform="translate(-45.916 -24.558)" fill="#004b34"/><path d="M97.183,72.048V61.666L101.9,48.721l-3.537-1.076L93.371,61.033V72.048Z" transform="translate(-66.008 -33.681)" fill="#004b34"/><path d="M100.565,50.711l-4.7,12.622V73.487h2.352V63.705l4.494-12.343Z" transform="translate(-67.768 -35.849)" fill="#004b34"/><rect width="3.742" height="19.345" transform="translate(36.585 19.021)" fill="#004b34"/><rect width="2.282" height="17.885" transform="translate(37.316 19.752)" fill="#004b34"/><g transform="translate(0)"><g clip-path="url(#a)"><path d="M179.96,92.335a9.008,9.008,0,0,1-6.143-2.251l-.488-.422,1.739-2.333.565.49a6.306,6.306,0,0,0,4.266,1.706c.736,0,3.14-.151,3.14-2.089,0-1.642-1.708-1.986-3.14-1.986h-3.6V82.765h3.477c1.088,0,2.914-.256,2.914-1.966,0-1.194-.9-1.8-2.667-1.8a6.988,6.988,0,0,0-4.34,1.651l-.557.424-1.768-2.356.564-.415a10.063,10.063,0,0,1,6.121-2.135c3.583,0,5.824,1.677,5.847,4.377a4,4,0,0,1-1.813,3.411,4,4,0,0,1,2.184,3.686c0,2.938-2.355,4.692-6.3,4.692" transform="translate(-122.533 -53.846)" fill="#004b34"/><path d="M229.261,92.617V76.8h11.509v2.81h-8.328v3.869h7.174v2.789h-7.174v3.539h8.6v2.81Z" transform="translate(-162.073 -54.293)" fill="#004b34"/><path d="M339.793,92.617V76.8H351.3v2.81h-8.328v3.869h7.174v2.789h-7.174v3.539h8.6v2.81Z" transform="translate(-240.213 -54.293)" fill="#004b34"/><path d="M400.493,92.617v-6.39h-6.775v6.39h-3.2V76.8h3.2v6.534h6.775V76.8h3.2V92.617Z" transform="translate(-276.071 -54.293)" fill="#004b34"/><path d="M454.734,89.891c2,0,3.14-.957,3.14-2.625,0-1.613-1.115-2.5-3.14-2.5H451.7v5.126ZM448.5,92.618V76.8h3.2v5.215h3.325c3.576,0,6.074,2.15,6.074,5.228,0,3.113-2.545,5.373-6.053,5.373ZM462.059,76.8h3.078V92.619h-3.078Z" transform="translate(-317.059 -54.294)" fill="#004b34"/><path d="M529.689,92.617V85.128c.012-.961.023-1.941.043-2.929l-7.424,10.418h-2.762V76.8h3.14v7.435c0,.807-.012,1.884-.043,2.968l7.423-10.4h2.741V92.617Z" transform="translate(-367.287 -54.293)" fill="#004b34"/><rect width="7.757" height="2.397" transform="translate(155.042 17.417)" fill="#004b34"/><path d="M660.738,79.173a5.14,5.14,0,1,0,5.119,5.181,4.817,4.817,0,0,0-5.119-5.181m0,13.213c-4.923,0-8.362-3.311-8.362-8.052,0-4.766,3.439-8.093,8.362-8.093,5,0,8.362,3.252,8.362,8.093,0,4.816-3.361,8.052-8.362,8.052" transform="translate(-461.19 -53.897)" fill="#004b34"/><path d="M734.588,92.617V83.74l.061-1.334-4.657,6.563h-1.129l-4.67-6.581.053,1.325v8.9h-3.14V76.8h2.885l5.514,7.72,5.437-7.72h2.867V92.617Z" transform="translate(-509.778 -54.293)" fill="#004b34"/><path d="M294.767,92.617V76.8H283.495v13h-1.983v2.813H286.6V79.63h4.943V92.617Z" transform="translate(-199.011 -54.293)" fill="#004b34"/><path d="M600.523,89.85h-5.969c.412-1.388.978-4.367,1.006-10.3h4.963Zm3.18,0V76.8H592.525V77.5c0,8.445-.881,11.455-1.257,12.354h-2.205v2.769H605.7V89.85Z" transform="translate(-416.431 -54.294)" fill="#004b34"/><rect width="80.177" height="13.762" transform="translate(148.078 44.995)" fill="#004b34"/><path d="M526.273,167.989h2.448v1.882h-2.448Zm6.634,4.178a3.487,3.487,0,0,0,3.6-3.434v-.019a3.6,3.6,0,0,0-7.188.019v.018a3.455,3.455,0,0,0,3.584,3.416m.019-1.948a1.409,1.409,0,0,1-1.383-1.487v-.019a1.389,1.389,0,0,1,1.364-1.467,1.409,1.409,0,0,1,1.383,1.486v.018a1.389,1.389,0,0,1-1.364,1.468m4.187,1.807h2.2v-1.883h.47l1.242,1.883h2.512l-1.534-2.24a2.13,2.13,0,0,0,1.3-2.014v-.018a2.068,2.068,0,0,0-.6-1.562,3.205,3.205,0,0,0-2.371-.753h-3.218Zm2.2-3.453v-1.289h.959c.508,0,.838.207.838.63v.018c0,.4-.321.64-.848.64Zm7.706,3.585c1.966,0,3.275-.885,3.275-3.134v-3.585h-2.24v3.651c0,.8-.423,1.12-1.016,1.12s-1.016-.348-1.016-1.167v-3.6h-2.239v3.632c0,2.183,1.27,3.087,3.237,3.087m3.97-.132h2.155v-3.265l1.515,2.343h.037l1.515-2.343v3.265h2.193v-6.587h-2.3l-1.411,2.315-1.412-2.315h-2.3Zm8.167,0h2.2v-2.362h2.014v2.362h2.2v-6.587h-2.2v2.324H561.36v-2.324h-2.2Zm10.6.141a3.487,3.487,0,0,0,3.6-3.434v-.019a3.6,3.6,0,0,0-7.189.019v.018a3.456,3.456,0,0,0,3.586,3.416m.018-1.948a1.409,1.409,0,0,1-1.383-1.487v-.019a1.389,1.389,0,0,1,1.365-1.467,1.409,1.409,0,0,1,1.383,1.486v.018a1.389,1.389,0,0,1-1.364,1.468m7.368,1.939c1.966,0,3.274-.885,3.274-3.134v-3.585h-2.239v3.651c0,.8-.424,1.12-1.017,1.12s-1.016-.348-1.016-1.167v-3.6h-2.239v3.632c0,2.183,1.27,3.087,3.237,3.087m6.8-.01c1.77,0,2.908-.847,2.908-2.229V169.9c0-1.327-1.13-1.816-2.814-2.127-.7-.132-.875-.245-.875-.423v-.019c0-.16.151-.272.48-.272a3.456,3.456,0,0,1,1.976.649l1.072-1.487a4.558,4.558,0,0,0-2.973-.9c-1.815,0-2.795.969-2.795,2.221v.018c0,1.393,1.3,1.816,2.776,2.117.705.141.912.245.912.433v.019c0,.179-.169.282-.564.282a3.777,3.777,0,0,1-2.305-.771l-1.176,1.4a5.085,5.085,0,0,0,3.378,1.11m5.58-1.929h3.5v1.807h-5.665v-6.587h5.617v1.807h-3.453Zm3.218-2.305H590.16v1.59h2.589Zm-69.306-2.475v6.587h2.2v-4.705h3.312v-1.882Z" transform="translate(-370.042 -116.856)" fill="#fff"/></g></g></g></svg>