<svg xmlns="http://www.w3.org/2000/svg" width="145.176" height="138.116" viewBox="0 0 145.176 138.116"><path d="M69.8,0,0,68.492v69.625H13.556V73.465L79.048,9.253Z" transform="translate(0 0)" fill="#004b34"/><path d="M69.642,3.509,2.491,69.4V135.3h8.3V72.17L75.174,9.043Z" transform="translate(0.137 0.193)" fill="#004b34"/><path d="M44.786,137.29V81.557L94.164,23.691l-10.309-8.66L31.228,76.6V137.29Z" transform="translate(1.717 0.826)" fill="#004b34"/><path d="M84.022,18.528l-50.3,58.85v57.09h8.3V80.4L90.308,23.81Z" transform="translate(1.854 1.018)" fill="#004b34"/><path d="M76.267,136.393V89.265l32.814-50.993-11.355-6.92L62.458,85.45v50.943Z" transform="translate(3.434 1.724)" fill="#004b34"/><path d="M98.4,34.738,64.95,86.044v47.533H73.5V88.308l31.774-49.38Z" transform="translate(3.571 1.91)" fill="#004b34"/><path d="M107.094,135.5V98.121l16.97-46.6-12.733-3.875-17.961,48.2V135.5Z" transform="translate(5.134 2.619)" fill="#004b34"/><path d="M112.8,50.711,95.861,96.149V132.7h8.467V97.49l16.179-44.432Z" transform="translate(5.271 2.787)" fill="#004b34"/><rect width="13.472" height="69.641" transform="translate(131.703 68.474)" fill="#004b34"/><rect width="8.215" height="64.385" transform="translate(134.331 71.103)" fill="#004b34"/></svg>